<?xml version="1.0" standalone="no"?><!DOCTYPE svg PUBLIC "-//W3C//DTD SVG 1.1//EN" "http://www.w3.org/Graphics/SVG/1.1/DTD/svg11.dtd"><svg t="1610673659280" class="icon" viewBox="0 0 1820 1024" version="1.1" xmlns="http://www.w3.org/2000/svg" p-id="2634" xmlns:xlink="http://www.w3.org/1999/xlink" width="355.46875" height="200"><defs><style type="text/css"></style></defs><path d="M909.691259 512.872296m-494.393837 0a494.393837 494.393837 0 1 0 988.787674 0 494.393837 494.393837 0 1 0-988.787674 0Z" fill="#ED4014" p-id="2635"></path><path d="M1125.458489 231.446756L900.261926 456.624356 693.87283 250.235259c-12.910933-12.910933-34.003437-12.910933-46.914371 0-12.910933 12.910933-12.910933 34.004385 0 46.915319l206.389097 206.389096-225.115023 225.117867c-12.914726 12.910933-12.914726 34.004385 0 46.915318 12.910933 12.910933 33.999644 12.910933 46.910578 0l225.182341-225.181392 243.911111 243.914903c12.910933 12.910933 34.003437 12.910933 46.91437-0.003792 12.910933-12.911881 12.914726-34.004385 0.003793-46.915319L947.239822 503.472356l225.181393-225.1776c12.910933-12.910933 12.910933-34.003437 0-46.914371-12.977304-12.844563-34.066963-12.844563-46.977896 0.066371h0.01517z m0 0" fill="#FFFFFF" p-id="2636"></path></svg>